<svg xmlns="http://www.w3.org/2000/svg" viewBox="0 0 49 49" width="2048" height="2048"><rect width="49" height="49" fill="#faf7ef"/><g fill="#565a22" shape-rendering="crispEdges"><rect x="4" y="4" width="1.02" height="1.02"/><rect x="5" y="4" width="1.02" height="1.02"/><rect x="6" y="4" width="1.02" height="1.02"/><rect x="7" y="4" width="1.02" height="1.02"/><rect x="8" y="4" width="1.02" height="1.02"/><rect x="9" y="4" width="1.02" height="1.02"/><rect x="10" y="4" width="1.02" height="1.02"/><rect x="14" y="4" width="1.02" height="1.02"/><rect x="15" y="4" width="1.02" height="1.02"/><rect x="18" y="4" width="1.02" height="1.02"/><rect x="19" y="4" width="1.02" height="1.02"/><rect x="20" y="4" width="1.02" height="1.02"/><rect x="23" y="4" width="1.02" height="1.02"/><rect x="25" y="4" width="1.02" height="1.02"/><rect x="26" y="4" width="1.02" height="1.02"/><rect x="27" y="4" width="1.02" height="1.02"/><rect x="28" y="4" width="1.02" height="1.02"/><rect x="34" y="4" width="1.02" height="1.02"/><rect x="35" y="4" width="1.02" height="1.02"/><rect x="38" y="4" width="1.02" height="1.02"/><rect x="39" y="4" width="1.02" height="1.02"/><rect x="40" y="4" width="1.02" height="1.02"/><rect x="41" y="4" width="1.02" height="1.02"/><rect x="42" y="4" width="1.02" height="1.02"/><rect x="43" y="4" width="1.02" height="1.02"/><rect x="44" y="4" width="1.02" height="1.02"/><rect x="4" y="5" width="1.02" height="1.02"/><rect x="10" y="5" width="1.02" height="1.02"/><rect x="12" y="5" width="1.02" height="1.02"/><rect x="13" y="5" width="1.02" height="1.02"/><rect x="16" y="5" width="1.02" height="1.02"/><rect x="17" y="5" width="1.02" height="1.02"/><rect x="18" y="5" width="1.02" height="1.02"/><rect x="20" y="5" width="1.02" height="1.02"/><rect x="21" y="5" width="1.02" height="1.02"/><rect x="22" y="5" width="1.02" height="1.02"/><rect x="23" y="5" width="1.02" height="1.02"/><rect x="25" y="5" width="1.02" height="1.02"/><rect x="28" y="5" width="1.02" height="1.02"/><rect x="32" y="5" width="1.02" height="1.02"/><rect x="34" y="5" width="1.02" height="1.02"/><rect x="36" y="5" width="1.02" height="1.02"/><rect x="38" y="5" width="1.02" height="1.02"/><rect x="44" y="5" width="1.02" height="1.02"/><rect x="4" y="6" width="1.02" height="1.02"/><rect x="6" y="6" width="1.02" height="1.02"/><rect x="7" y="6" width="1.02" height="1.02"/><rect x="8" y="6" width="1.02" height="1.02"/><rect x="10" y="6" width="1.02" height="1.02"/><rect x="13" y="6" width="1.02" height="1.02"/><rect x="17" y="6" width="1.02" height="1.02"/><rect x="19" y="6" width="1.02" height="1.02"/><rect x="20" y="6" width="1.02" height="1.02"/><rect x="23" y="6" width="1.02" height="1.02"/><rect x="24" y="6" width="1.02" height="1.02"/><rect x="29" y="6" width="1.02" height="1.02"/><rect x="31" y="6" width="1.02" height="1.02"/><rect x="32" y="6" width="1.02" height="1.02"/><rect x="33" y="6" width="1.02" height="1.02"/><rect x="34" y="6" width="1.02" height="1.02"/><rect x="35" y="6" width="1.02" height="1.02"/><rect x="36" y="6" width="1.02" height="1.02"/><rect x="38" y="6" width="1.02" height="1.02"/><rect x="40" y="6" width="1.02" height="1.02"/><rect x="41" y="6" width="1.02" height="1.02"/><rect x="42" y="6" width="1.02" height="1.02"/><rect x="44" y="6" width="1.02" height="1.02"/><rect x="4" y="7" width="1.02" height="1.02"/><rect x="6" y="7" width="1.02" height="1.02"/><rect x="7" y="7" width="1.02" height="1.02"/><rect x="8" y="7" width="1.02" height="1.02"/><rect x="10" y="7" width="1.02" height="1.02"/><rect x="14" y="7" width="1.02" height="1.02"/><rect x="19" y="7" width="1.02" height="1.02"/><rect x="20" y="7" width="1.02" height="1.02"/><rect x="21" y="7" width="1.02" height="1.02"/><rect x="24" y="7" width="1.02" height="1.02"/><rect x="27" y="7" width="1.02" height="1.02"/><rect x="30" y="7" width="1.02" height="1.02"/><rect x="31" y="7" width="1.02" height="1.02"/><rect x="33" y="7" width="1.02" height="1.02"/><rect x="35" y="7" width="1.02" height="1.02"/><rect x="36" y="7" width="1.02" height="1.02"/><rect x="38" y="7" width="1.02" height="1.02"/><rect x="40" y="7" width="1.02" height="1.02"/><rect x="41" y="7" width="1.02" height="1.02"/><rect x="42" y="7" width="1.02" height="1.02"/><rect x="44" y="7" width="1.02" height="1.02"/><rect x="4" y="8" width="1.02" height="1.02"/><rect x="6" y="8" width="1.02" height="1.02"/><rect x="7" y="8" width="1.02" height="1.02"/><rect x="8" y="8" width="1.02" height="1.02"/><rect x="10" y="8" width="1.02" height="1.02"/><rect x="14" y="8" width="1.02" height="1.02"/><rect x="16" y="8" width="1.02" height="1.02"/><rect x="18" y="8" width="1.02" height="1.02"/><rect x="19" y="8" width="1.02" height="1.02"/><rect x="20" y="8" width="1.02" height="1.02"/><rect x="25" y="8" width="1.02" height="1.02"/><rect x="26" y="8" width="1.02" height="1.02"/><rect x="27" y="8" width="1.02" height="1.02"/><rect x="30" y="8" width="1.02" height="1.02"/><rect x="31" y="8" width="1.02" height="1.02"/><rect x="32" y="8" width="1.02" height="1.02"/><rect x="33" y="8" width="1.02" height="1.02"/><rect x="38" y="8" width="1.02" height="1.02"/><rect x="40" y="8" width="1.02" height="1.02"/><rect x="41" y="8" width="1.02" height="1.02"/><rect x="42" y="8" width="1.02" height="1.02"/><rect x="44" y="8" width="1.02" height="1.02"/><rect x="4" y="9" width="1.02" height="1.02"/><rect x="10" y="9" width="1.02" height="1.02"/><rect x="12" y="9" width="1.02" height="1.02"/><rect x="13" y="9" width="1.02" height="1.02"/><rect x="15" y="9" width="1.02" height="1.02"/><rect x="17" y="9" width="1.02" height="1.02"/><rect x="20" y="9" width="1.02" height="1.02"/><rect x="22" y="9" width="1.02" height="1.02"/><rect x="26" y="9" width="1.02" height="1.02"/><rect x="27" y="9" width="1.02" height="1.02"/><rect x="28" y="9" width="1.02" height="1.02"/><rect x="30" y="9" width="1.02" height="1.02"/><rect x="32" y="9" width="1.02" height="1.02"/><rect x="35" y="9" width="1.02" height="1.02"/><rect x="38" y="9" width="1.02" height="1.02"/><rect x="44" y="9" width="1.02" height="1.02"/><rect x="4" y="10" width="1.02" height="1.02"/><rect x="5" y="10" width="1.02" height="1.02"/><rect x="6" y="10" width="1.02" height="1.02"/><rect x="7" y="10" width="1.02" height="1.02"/><rect x="8" y="10" width="1.02" height="1.02"/><rect x="9" y="10" width="1.02" height="1.02"/><rect x="10" y="10" width="1.02" height="1.02"/><rect x="12" y="10" width="1.02" height="1.02"/><rect x="14" y="10" width="1.02" height="1.02"/><rect x="16" y="10" width="1.02" height="1.02"/><rect x="18" y="10" width="1.02" height="1.02"/><rect x="20" y="10" width="1.02" height="1.02"/><rect x="22" y="10" width="1.02" height="1.02"/><rect x="24" y="10" width="1.02" height="1.02"/><rect x="26" y="10" width="1.02" height="1.02"/><rect x="28" y="10" width="1.02" height="1.02"/><rect x="30" y="10" width="1.02" height="1.02"/><rect x="32" y="10" width="1.02" height="1.02"/><rect x="34" y="10" width="1.02" height="1.02"/><rect x="36" y="10" width="1.02" height="1.02"/><rect x="38" y="10" width="1.02" height="1.02"/><rect x="39" y="10" width="1.02" height="1.02"/><rect x="40" y="10" width="1.02" height="1.02"/><rect x="41" y="10" width="1.02" height="1.02"/><rect x="42" y="10" width="1.02" height="1.02"/><rect x="43" y="10" width="1.02" height="1.02"/><rect x="44" y="10" width="1.02" height="1.02"/><rect x="12" y="11" width="1.02" height="1.02"/><rect x="13" y="11" width="1.02" height="1.02"/><rect x="15" y="11" width="1.02" height="1.02"/><rect x="19" y="11" width="1.02" height="1.02"/><rect x="22" y="11" width="1.02" height="1.02"/><rect x="24" y="11" width="1.02" height="1.02"/><rect x="28" y="11" width="1.02" height="1.02"/><rect x="30" y="11" width="1.02" height="1.02"/><rect x="31" y="11" width="1.02" height="1.02"/><rect x="33" y="11" width="1.02" height="1.02"/><rect x="34" y="11" width="1.02" height="1.02"/><rect x="36" y="11" width="1.02" height="1.02"/><rect x="8" y="12" width="1.02" height="1.02"/><rect x="9" y="12" width="1.02" height="1.02"/><rect x="10" y="12" width="1.02" height="1.02"/><rect x="11" y="12" width="1.02" height="1.02"/><rect x="13" y="12" width="1.02" height="1.02"/><rect x="15" y="12" width="1.02" height="1.02"/><rect x="16" y="12" width="1.02" height="1.02"/><rect x="17" y="12" width="1.02" height="1.02"/><rect x="23" y="12" width="1.02" height="1.02"/><rect x="24" y="12" width="1.02" height="1.02"/><rect x="29" y="12" width="1.02" height="1.02"/><rect x="33" y="12" width="1.02" height="1.02"/><rect x="35" y="12" width="1.02" height="1.02"/><rect x="36" y="12" width="1.02" height="1.02"/><rect x="38" y="12" width="1.02" height="1.02"/><rect x="39" y="12" width="1.02" height="1.02"/><rect x="43" y="12" width="1.02" height="1.02"/><rect x="6" y="13" width="1.02" height="1.02"/><rect x="7" y="13" width="1.02" height="1.02"/><rect x="9" y="13" width="1.02" height="1.02"/><rect x="11" y="13" width="1.02" height="1.02"/><rect x="14" y="13" width="1.02" height="1.02"/><rect x="15" y="13" width="1.02" height="1.02"/><rect x="17" y="13" width="1.02" height="1.02"/><rect x="22" y="13" width="1.02" height="1.02"/><rect x="24" y="13" width="1.02" height="1.02"/><rect x="25" y="13" width="1.02" height="1.02"/><rect x="27" y="13" width="1.02" height="1.02"/><rect x="28" y="13" width="1.02" height="1.02"/><rect x="30" y="13" width="1.02" height="1.02"/><rect x="31" y="13" width="1.02" height="1.02"/><rect x="32" y="13" width="1.02" height="1.02"/><rect x="34" y="13" width="1.02" height="1.02"/><rect x="38" y="13" width="1.02" height="1.02"/><rect x="39" y="13" width="1.02" height="1.02"/><rect x="40" y="13" width="1.02" height="1.02"/><rect x="41" y="13" width="1.02" height="1.02"/><rect x="43" y="13" width="1.02" height="1.02"/><rect x="4" y="14" width="1.02" height="1.02"/><rect x="6" y="14" width="1.02" height="1.02"/><rect x="7" y="14" width="1.02" height="1.02"/><rect x="8" y="14" width="1.02" height="1.02"/><rect x="9" y="14" width="1.02" height="1.02"/><rect x="10" y="14" width="1.02" height="1.02"/><rect x="11" y="14" width="1.02" height="1.02"/><rect x="12" y="14" width="1.02" height="1.02"/><rect x="13" y="14" width="1.02" height="1.02"/><rect x="14" y="14" width="1.02" height="1.02"/><rect x="19" y="14" width="1.02" height="1.02"/><rect x="22" y="14" width="1.02" height="1.02"/><rect x="25" y="14" width="1.02" height="1.02"/><rect x="27" y="14" width="1.02" height="1.02"/><rect x="29" y="14" width="1.02" height="1.02"/><rect x="31" y="14" width="1.02" height="1.02"/><rect x="32" y="14" width="1.02" height="1.02"/><rect x="36" y="14" width="1.02" height="1.02"/><rect x="37" y="14" width="1.02" height="1.02"/><rect x="38" y="14" width="1.02" height="1.02"/><rect x="39" y="14" width="1.02" height="1.02"/><rect x="40" y="14" width="1.02" height="1.02"/><rect x="43" y="14" width="1.02" height="1.02"/><rect x="44" y="14" width="1.02" height="1.02"/><rect x="4" y="15" width="1.02" height="1.02"/><rect x="5" y="15" width="1.02" height="1.02"/><rect x="7" y="15" width="1.02" height="1.02"/><rect x="11" y="15" width="1.02" height="1.02"/><rect x="16" y="15" width="1.02" height="1.02"/><rect x="17" y="15" width="1.02" height="1.02"/><rect x="20" y="15" width="1.02" height="1.02"/><rect x="24" y="15" width="1.02" height="1.02"/><rect x="25" y="15" width="1.02" height="1.02"/><rect x="27" y="15" width="1.02" height="1.02"/><rect x="28" y="15" width="1.02" height="1.02"/><rect x="29" y="15" width="1.02" height="1.02"/><rect x="31" y="15" width="1.02" height="1.02"/><rect x="33" y="15" width="1.02" height="1.02"/><rect x="34" y="15" width="1.02" height="1.02"/><rect x="35" y="15" width="1.02" height="1.02"/><rect x="36" y="15" width="1.02" height="1.02"/><rect x="38" y="15" width="1.02" height="1.02"/><rect x="40" y="15" width="1.02" height="1.02"/><rect x="41" y="15" width="1.02" height="1.02"/><rect x="44" y="15" width="1.02" height="1.02"/><rect x="4" y="16" width="1.02" height="1.02"/><rect x="5" y="16" width="1.02" height="1.02"/><rect x="8" y="16" width="1.02" height="1.02"/><rect x="10" y="16" width="1.02" height="1.02"/><rect x="11" y="16" width="1.02" height="1.02"/><rect x="15" y="16" width="1.02" height="1.02"/><rect x="16" y="16" width="1.02" height="1.02"/><rect x="17" y="16" width="1.02" height="1.02"/><rect x="18" y="16" width="1.02" height="1.02"/><rect x="22" y="16" width="1.02" height="1.02"/><rect x="23" y="16" width="1.02" height="1.02"/><rect x="25" y="16" width="1.02" height="1.02"/><rect x="26" y="16" width="1.02" height="1.02"/><rect x="28" y="16" width="1.02" height="1.02"/><rect x="29" y="16" width="1.02" height="1.02"/><rect x="31" y="16" width="1.02" height="1.02"/><rect x="32" y="16" width="1.02" height="1.02"/><rect x="33" y="16" width="1.02" height="1.02"/><rect x="36" y="16" width="1.02" height="1.02"/><rect x="39" y="16" width="1.02" height="1.02"/><rect x="8" y="17" width="1.02" height="1.02"/><rect x="13" y="17" width="1.02" height="1.02"/><rect x="15" y="17" width="1.02" height="1.02"/><rect x="16" y="17" width="1.02" height="1.02"/><rect x="18" y="17" width="1.02" height="1.02"/><rect x="19" y="17" width="1.02" height="1.02"/><rect x="20" y="17" width="1.02" height="1.02"/><rect x="23" y="17" width="1.02" height="1.02"/><rect x="24" y="17" width="1.02" height="1.02"/><rect x="25" y="17" width="1.02" height="1.02"/><rect x="27" y="17" width="1.02" height="1.02"/><rect x="35" y="17" width="1.02" height="1.02"/><rect x="37" y="17" width="1.02" height="1.02"/><rect x="39" y="17" width="1.02" height="1.02"/><rect x="40" y="17" width="1.02" height="1.02"/><rect x="44" y="17" width="1.02" height="1.02"/><rect x="4" y="18" width="1.02" height="1.02"/><rect x="6" y="18" width="1.02" height="1.02"/><rect x="10" y="18" width="1.02" height="1.02"/><rect x="14" y="18" width="1.02" height="1.02"/><rect x="15" y="18" width="1.02" height="1.02"/><rect x="16" y="18" width="1.02" height="1.02"/><rect x="17" y="18" width="1.02" height="1.02"/><rect x="18" y="18" width="1.02" height="1.02"/><rect x="20" y="18" width="1.02" height="1.02"/><rect x="22" y="18" width="1.02" height="1.02"/><rect x="27" y="18" width="1.02" height="1.02"/><rect x="28" y="18" width="1.02" height="1.02"/><rect x="30" y="18" width="1.02" height="1.02"/><rect x="31" y="18" width="1.02" height="1.02"/><rect x="33" y="18" width="1.02" height="1.02"/><rect x="35" y="18" width="1.02" height="1.02"/><rect x="37" y="18" width="1.02" height="1.02"/><rect x="38" y="18" width="1.02" height="1.02"/><rect x="39" y="18" width="1.02" height="1.02"/><rect x="42" y="18" width="1.02" height="1.02"/><rect x="44" y="18" width="1.02" height="1.02"/><rect x="6" y="19" width="1.02" height="1.02"/><rect x="7" y="19" width="1.02" height="1.02"/><rect x="8" y="19" width="1.02" height="1.02"/><rect x="9" y="19" width="1.02" height="1.02"/><rect x="13" y="19" width="1.02" height="1.02"/><rect x="15" y="19" width="1.02" height="1.02"/><rect x="16" y="19" width="1.02" height="1.02"/><rect x="17" y="19" width="1.02" height="1.02"/><rect x="22" y="19" width="1.02" height="1.02"/><rect x="25" y="19" width="1.02" height="1.02"/><rect x="29" y="19" width="1.02" height="1.02"/><rect x="31" y="19" width="1.02" height="1.02"/><rect x="32" y="19" width="1.02" height="1.02"/><rect x="33" y="19" width="1.02" height="1.02"/><rect x="34" y="19" width="1.02" height="1.02"/><rect x="35" y="19" width="1.02" height="1.02"/><rect x="36" y="19" width="1.02" height="1.02"/><rect x="41" y="19" width="1.02" height="1.02"/><rect x="43" y="19" width="1.02" height="1.02"/><rect x="44" y="19" width="1.02" height="1.02"/><rect x="6" y="20" width="1.02" height="1.02"/><rect x="8" y="20" width="1.02" height="1.02"/><rect x="10" y="20" width="1.02" height="1.02"/><rect x="28" y="20" width="1.02" height="1.02"/><rect x="30" y="20" width="1.02" height="1.02"/><rect x="34" y="20" width="1.02" height="1.02"/><rect x="36" y="20" width="1.02" height="1.02"/><rect x="39" y="20" width="1.02" height="1.02"/><rect x="41" y="20" width="1.02" height="1.02"/><rect x="43" y="20" width="1.02" height="1.02"/><rect x="44" y="20" width="1.02" height="1.02"/><rect x="4" y="21" width="1.02" height="1.02"/><rect x="5" y="21" width="1.02" height="1.02"/><rect x="6" y="21" width="1.02" height="1.02"/><rect x="7" y="21" width="1.02" height="1.02"/><rect x="9" y="21" width="1.02" height="1.02"/><rect x="32" y="21" width="1.02" height="1.02"/><rect x="33" y="21" width="1.02" height="1.02"/><rect x="35" y="21" width="1.02" height="1.02"/><rect x="36" y="21" width="1.02" height="1.02"/><rect x="37" y="21" width="1.02" height="1.02"/><rect x="38" y="21" width="1.02" height="1.02"/><rect x="39" y="21" width="1.02" height="1.02"/><rect x="40" y="21" width="1.02" height="1.02"/><rect x="41" y="21" width="1.02" height="1.02"/><rect x="44" y="21" width="1.02" height="1.02"/><rect x="4" y="22" width="1.02" height="1.02"/><rect x="5" y="22" width="1.02" height="1.02"/><rect x="6" y="22" width="1.02" height="1.02"/><rect x="7" y="22" width="1.02" height="1.02"/><rect x="8" y="22" width="1.02" height="1.02"/><rect x="10" y="22" width="1.02" height="1.02"/><rect x="11" y="22" width="1.02" height="1.02"/><rect x="34" y="22" width="1.02" height="1.02"/><rect x="37" y="22" width="1.02" height="1.02"/><rect x="38" y="22" width="1.02" height="1.02"/><rect x="39" y="22" width="1.02" height="1.02"/><rect x="41" y="22" width="1.02" height="1.02"/><rect x="44" y="22" width="1.02" height="1.02"/><rect x="5" y="23" width="1.02" height="1.02"/><rect x="7" y="23" width="1.02" height="1.02"/><rect x="8" y="23" width="1.02" height="1.02"/><rect x="37" y="23" width="1.02" height="1.02"/><rect x="38" y="23" width="1.02" height="1.02"/><rect x="39" y="23" width="1.02" height="1.02"/><rect x="41" y="23" width="1.02" height="1.02"/><rect x="44" y="23" width="1.02" height="1.02"/><rect x="4" y="24" width="1.02" height="1.02"/><rect x="5" y="24" width="1.02" height="1.02"/><rect x="6" y="24" width="1.02" height="1.02"/><rect x="7" y="24" width="1.02" height="1.02"/><rect x="10" y="24" width="1.02" height="1.02"/><rect x="35" y="24" width="1.02" height="1.02"/><rect x="37" y="24" width="1.02" height="1.02"/><rect x="40" y="24" width="1.02" height="1.02"/><rect x="41" y="24" width="1.02" height="1.02"/><rect x="44" y="24" width="1.02" height="1.02"/><rect x="5" y="25" width="1.02" height="1.02"/><rect x="7" y="25" width="1.02" height="1.02"/><rect x="8" y="25" width="1.02" height="1.02"/><rect x="14" y="25" width="1.02" height="1.02"/><rect x="15" y="25" width="1.02" height="1.02"/><rect x="34" y="25" width="1.02" height="1.02"/><rect x="38" y="25" width="1.02" height="1.02"/><rect x="39" y="25" width="1.02" height="1.02"/><rect x="44" y="25" width="1.02" height="1.02"/><rect x="4" y="26" width="1.02" height="1.02"/><rect x="6" y="26" width="1.02" height="1.02"/><rect x="8" y="26" width="1.02" height="1.02"/><rect x="10" y="26" width="1.02" height="1.02"/><rect x="14" y="26" width="1.02" height="1.02"/><rect x="16" y="26" width="1.02" height="1.02"/><rect x="17" y="26" width="1.02" height="1.02"/><rect x="18" y="26" width="1.02" height="1.02"/><rect x="38" y="26" width="1.02" height="1.02"/><rect x="39" y="26" width="1.02" height="1.02"/><rect x="40" y="26" width="1.02" height="1.02"/><rect x="42" y="26" width="1.02" height="1.02"/><rect x="44" y="26" width="1.02" height="1.02"/><rect x="4" y="27" width="1.02" height="1.02"/><rect x="6" y="27" width="1.02" height="1.02"/><rect x="11" y="27" width="1.02" height="1.02"/><rect x="13" y="27" width="1.02" height="1.02"/><rect x="14" y="27" width="1.02" height="1.02"/><rect x="16" y="27" width="1.02" height="1.02"/><rect x="38" y="27" width="1.02" height="1.02"/><rect x="40" y="27" width="1.02" height="1.02"/><rect x="41" y="27" width="1.02" height="1.02"/><rect x="42" y="27" width="1.02" height="1.02"/><rect x="44" y="27" width="1.02" height="1.02"/><rect x="5" y="28" width="1.02" height="1.02"/><rect x="6" y="28" width="1.02" height="1.02"/><rect x="7" y="28" width="1.02" height="1.02"/><rect x="8" y="28" width="1.02" height="1.02"/><rect x="10" y="28" width="1.02" height="1.02"/><rect x="11" y="28" width="1.02" height="1.02"/><rect x="12" y="28" width="1.02" height="1.02"/><rect x="14" y="28" width="1.02" height="1.02"/><rect x="15" y="28" width="1.02" height="1.02"/><rect x="16" y="28" width="1.02" height="1.02"/><rect x="41" y="28" width="1.02" height="1.02"/><rect x="42" y="28" width="1.02" height="1.02"/><rect x="43" y="28" width="1.02" height="1.02"/><rect x="5" y="29" width="1.02" height="1.02"/><rect x="7" y="29" width="1.02" height="1.02"/><rect x="8" y="29" width="1.02" height="1.02"/><rect x="11" y="29" width="1.02" height="1.02"/><rect x="13" y="29" width="1.02" height="1.02"/><rect x="14" y="29" width="1.02" height="1.02"/><rect x="37" y="29" width="1.02" height="1.02"/><rect x="38" y="29" width="1.02" height="1.02"/><rect x="40" y="29" width="1.02" height="1.02"/><rect x="42" y="29" width="1.02" height="1.02"/><rect x="4" y="30" width="1.02" height="1.02"/><rect x="6" y="30" width="1.02" height="1.02"/><rect x="7" y="30" width="1.02" height="1.02"/><rect x="8" y="30" width="1.02" height="1.02"/><rect x="10" y="30" width="1.02" height="1.02"/><rect x="36" y="30" width="1.02" height="1.02"/><rect x="4" y="31" width="1.02" height="1.02"/><rect x="6" y="31" width="1.02" height="1.02"/><rect x="8" y="31" width="1.02" height="1.02"/><rect x="11" y="31" width="1.02" height="1.02"/><rect x="37" y="31" width="1.02" height="1.02"/><rect x="39" y="31" width="1.02" height="1.02"/><rect x="40" y="31" width="1.02" height="1.02"/><rect x="41" y="31" width="1.02" height="1.02"/><rect x="43" y="31" width="1.02" height="1.02"/><rect x="4" y="32" width="1.02" height="1.02"/><rect x="5" y="32" width="1.02" height="1.02"/><rect x="10" y="32" width="1.02" height="1.02"/><rect x="12" y="32" width="1.02" height="1.02"/><rect x="15" y="32" width="1.02" height="1.02"/><rect x="33" y="32" width="1.02" height="1.02"/><rect x="37" y="32" width="1.02" height="1.02"/><rect x="38" y="32" width="1.02" height="1.02"/><rect x="39" y="32" width="1.02" height="1.02"/><rect x="43" y="32" width="1.02" height="1.02"/><rect x="44" y="32" width="1.02" height="1.02"/><rect x="4" y="33" width="1.02" height="1.02"/><rect x="5" y="33" width="1.02" height="1.02"/><rect x="6" y="33" width="1.02" height="1.02"/><rect x="7" y="33" width="1.02" height="1.02"/><rect x="8" y="33" width="1.02" height="1.02"/><rect x="14" y="33" width="1.02" height="1.02"/><rect x="19" y="33" width="1.02" height="1.02"/><rect x="20" y="33" width="1.02" height="1.02"/><rect x="21" y="33" width="1.02" height="1.02"/><rect x="25" y="33" width="1.02" height="1.02"/><rect x="28" y="33" width="1.02" height="1.02"/><rect x="29" y="33" width="1.02" height="1.02"/><rect x="30" y="33" width="1.02" height="1.02"/><rect x="32" y="33" width="1.02" height="1.02"/><rect x="33" y="33" width="1.02" height="1.02"/><rect x="34" y="33" width="1.02" height="1.02"/><rect x="35" y="33" width="1.02" height="1.02"/><rect x="36" y="33" width="1.02" height="1.02"/><rect x="39" y="33" width="1.02" height="1.02"/><rect x="40" y="33" width="1.02" height="1.02"/><rect x="42" y="33" width="1.02" height="1.02"/><rect x="44" y="33" width="1.02" height="1.02"/><rect x="6" y="34" width="1.02" height="1.02"/><rect x="10" y="34" width="1.02" height="1.02"/><rect x="11" y="34" width="1.02" height="1.02"/><rect x="12" y="34" width="1.02" height="1.02"/><rect x="15" y="34" width="1.02" height="1.02"/><rect x="16" y="34" width="1.02" height="1.02"/><rect x="17" y="34" width="1.02" height="1.02"/><rect x="20" y="34" width="1.02" height="1.02"/><rect x="21" y="34" width="1.02" height="1.02"/><rect x="22" y="34" width="1.02" height="1.02"/><rect x="26" y="34" width="1.02" height="1.02"/><rect x="27" y="34" width="1.02" height="1.02"/><rect x="29" y="34" width="1.02" height="1.02"/><rect x="32" y="34" width="1.02" height="1.02"/><rect x="34" y="34" width="1.02" height="1.02"/><rect x="36" y="34" width="1.02" height="1.02"/><rect x="37" y="34" width="1.02" height="1.02"/><rect x="41" y="34" width="1.02" height="1.02"/><rect x="44" y="34" width="1.02" height="1.02"/><rect x="6" y="35" width="1.02" height="1.02"/><rect x="7" y="35" width="1.02" height="1.02"/><rect x="11" y="35" width="1.02" height="1.02"/><rect x="12" y="35" width="1.02" height="1.02"/><rect x="13" y="35" width="1.02" height="1.02"/><rect x="18" y="35" width="1.02" height="1.02"/><rect x="19" y="35" width="1.02" height="1.02"/><rect x="20" y="35" width="1.02" height="1.02"/><rect x="22" y="35" width="1.02" height="1.02"/><rect x="23" y="35" width="1.02" height="1.02"/><rect x="27" y="35" width="1.02" height="1.02"/><rect x="29" y="35" width="1.02" height="1.02"/><rect x="30" y="35" width="1.02" height="1.02"/><rect x="37" y="35" width="1.02" height="1.02"/><rect x="41" y="35" width="1.02" height="1.02"/><rect x="43" y="35" width="1.02" height="1.02"/><rect x="44" y="35" width="1.02" height="1.02"/><rect x="4" y="36" width="1.02" height="1.02"/><rect x="5" y="36" width="1.02" height="1.02"/><rect x="9" y="36" width="1.02" height="1.02"/><rect x="10" y="36" width="1.02" height="1.02"/><rect x="12" y="36" width="1.02" height="1.02"/><rect x="13" y="36" width="1.02" height="1.02"/><rect x="15" y="36" width="1.02" height="1.02"/><rect x="17" y="36" width="1.02" height="1.02"/><rect x="19" y="36" width="1.02" height="1.02"/><rect x="21" y="36" width="1.02" height="1.02"/><rect x="23" y="36" width="1.02" height="1.02"/><rect x="24" y="36" width="1.02" height="1.02"/><rect x="25" y="36" width="1.02" height="1.02"/><rect x="26" y="36" width="1.02" height="1.02"/><rect x="31" y="36" width="1.02" height="1.02"/><rect x="32" y="36" width="1.02" height="1.02"/><rect x="35" y="36" width="1.02" height="1.02"/><rect x="36" y="36" width="1.02" height="1.02"/><rect x="37" y="36" width="1.02" height="1.02"/><rect x="38" y="36" width="1.02" height="1.02"/><rect x="39" y="36" width="1.02" height="1.02"/><rect x="40" y="36" width="1.02" height="1.02"/><rect x="41" y="36" width="1.02" height="1.02"/><rect x="43" y="36" width="1.02" height="1.02"/><rect x="12" y="37" width="1.02" height="1.02"/><rect x="13" y="37" width="1.02" height="1.02"/><rect x="16" y="37" width="1.02" height="1.02"/><rect x="18" y="37" width="1.02" height="1.02"/><rect x="19" y="37" width="1.02" height="1.02"/><rect x="20" y="37" width="1.02" height="1.02"/><rect x="23" y="37" width="1.02" height="1.02"/><rect x="24" y="37" width="1.02" height="1.02"/><rect x="26" y="37" width="1.02" height="1.02"/><rect x="34" y="37" width="1.02" height="1.02"/><rect x="36" y="37" width="1.02" height="1.02"/><rect x="40" y="37" width="1.02" height="1.02"/><rect x="42" y="37" width="1.02" height="1.02"/><rect x="44" y="37" width="1.02" height="1.02"/><rect x="4" y="38" width="1.02" height="1.02"/><rect x="5" y="38" width="1.02" height="1.02"/><rect x="6" y="38" width="1.02" height="1.02"/><rect x="7" y="38" width="1.02" height="1.02"/><rect x="8" y="38" width="1.02" height="1.02"/><rect x="9" y="38" width="1.02" height="1.02"/><rect x="10" y="38" width="1.02" height="1.02"/><rect x="12" y="38" width="1.02" height="1.02"/><rect x="15" y="38" width="1.02" height="1.02"/><rect x="17" y="38" width="1.02" height="1.02"/><rect x="19" y="38" width="1.02" height="1.02"/><rect x="22" y="38" width="1.02" height="1.02"/><rect x="23" y="38" width="1.02" height="1.02"/><rect x="25" y="38" width="1.02" height="1.02"/><rect x="28" y="38" width="1.02" height="1.02"/><rect x="29" y="38" width="1.02" height="1.02"/><rect x="31" y="38" width="1.02" height="1.02"/><rect x="33" y="38" width="1.02" height="1.02"/><rect x="35" y="38" width="1.02" height="1.02"/><rect x="36" y="38" width="1.02" height="1.02"/><rect x="38" y="38" width="1.02" height="1.02"/><rect x="40" y="38" width="1.02" height="1.02"/><rect x="42" y="38" width="1.02" height="1.02"/><rect x="44" y="38" width="1.02" height="1.02"/><rect x="4" y="39" width="1.02" height="1.02"/><rect x="10" y="39" width="1.02" height="1.02"/><rect x="12" y="39" width="1.02" height="1.02"/><rect x="13" y="39" width="1.02" height="1.02"/><rect x="15" y="39" width="1.02" height="1.02"/><rect x="17" y="39" width="1.02" height="1.02"/><rect x="24" y="39" width="1.02" height="1.02"/><rect x="26" y="39" width="1.02" height="1.02"/><rect x="27" y="39" width="1.02" height="1.02"/><rect x="28" y="39" width="1.02" height="1.02"/><rect x="30" y="39" width="1.02" height="1.02"/><rect x="31" y="39" width="1.02" height="1.02"/><rect x="32" y="39" width="1.02" height="1.02"/><rect x="33" y="39" width="1.02" height="1.02"/><rect x="34" y="39" width="1.02" height="1.02"/><rect x="35" y="39" width="1.02" height="1.02"/><rect x="36" y="39" width="1.02" height="1.02"/><rect x="40" y="39" width="1.02" height="1.02"/><rect x="41" y="39" width="1.02" height="1.02"/><rect x="44" y="39" width="1.02" height="1.02"/><rect x="4" y="40" width="1.02" height="1.02"/><rect x="6" y="40" width="1.02" height="1.02"/><rect x="7" y="40" width="1.02" height="1.02"/><rect x="8" y="40" width="1.02" height="1.02"/><rect x="10" y="40" width="1.02" height="1.02"/><rect x="12" y="40" width="1.02" height="1.02"/><rect x="14" y="40" width="1.02" height="1.02"/><rect x="15" y="40" width="1.02" height="1.02"/><rect x="16" y="40" width="1.02" height="1.02"/><rect x="17" y="40" width="1.02" height="1.02"/><rect x="19" y="40" width="1.02" height="1.02"/><rect x="21" y="40" width="1.02" height="1.02"/><rect x="23" y="40" width="1.02" height="1.02"/><rect x="24" y="40" width="1.02" height="1.02"/><rect x="25" y="40" width="1.02" height="1.02"/><rect x="26" y="40" width="1.02" height="1.02"/><rect x="27" y="40" width="1.02" height="1.02"/><rect x="28" y="40" width="1.02" height="1.02"/><rect x="29" y="40" width="1.02" height="1.02"/><rect x="34" y="40" width="1.02" height="1.02"/><rect x="35" y="40" width="1.02" height="1.02"/><rect x="36" y="40" width="1.02" height="1.02"/><rect x="37" y="40" width="1.02" height="1.02"/><rect x="38" y="40" width="1.02" height="1.02"/><rect x="39" y="40" width="1.02" height="1.02"/><rect x="40" y="40" width="1.02" height="1.02"/><rect x="43" y="40" width="1.02" height="1.02"/><rect x="4" y="41" width="1.02" height="1.02"/><rect x="6" y="41" width="1.02" height="1.02"/><rect x="7" y="41" width="1.02" height="1.02"/><rect x="8" y="41" width="1.02" height="1.02"/><rect x="10" y="41" width="1.02" height="1.02"/><rect x="13" y="41" width="1.02" height="1.02"/><rect x="15" y="41" width="1.02" height="1.02"/><rect x="19" y="41" width="1.02" height="1.02"/><rect x="20" y="41" width="1.02" height="1.02"/><rect x="22" y="41" width="1.02" height="1.02"/><rect x="24" y="41" width="1.02" height="1.02"/><rect x="25" y="41" width="1.02" height="1.02"/><rect x="30" y="41" width="1.02" height="1.02"/><rect x="31" y="41" width="1.02" height="1.02"/><rect x="32" y="41" width="1.02" height="1.02"/><rect x="35" y="41" width="1.02" height="1.02"/><rect x="36" y="41" width="1.02" height="1.02"/><rect x="39" y="41" width="1.02" height="1.02"/><rect x="41" y="41" width="1.02" height="1.02"/><rect x="42" y="41" width="1.02" height="1.02"/><rect x="44" y="41" width="1.02" height="1.02"/><rect x="4" y="42" width="1.02" height="1.02"/><rect x="6" y="42" width="1.02" height="1.02"/><rect x="7" y="42" width="1.02" height="1.02"/><rect x="8" y="42" width="1.02" height="1.02"/><rect x="10" y="42" width="1.02" height="1.02"/><rect x="13" y="42" width="1.02" height="1.02"/><rect x="16" y="42" width="1.02" height="1.02"/><rect x="17" y="42" width="1.02" height="1.02"/><rect x="18" y="42" width="1.02" height="1.02"/><rect x="19" y="42" width="1.02" height="1.02"/><rect x="20" y="42" width="1.02" height="1.02"/><rect x="22" y="42" width="1.02" height="1.02"/><rect x="23" y="42" width="1.02" height="1.02"/><rect x="25" y="42" width="1.02" height="1.02"/><rect x="26" y="42" width="1.02" height="1.02"/><rect x="29" y="42" width="1.02" height="1.02"/><rect x="31" y="42" width="1.02" height="1.02"/><rect x="32" y="42" width="1.02" height="1.02"/><rect x="33" y="42" width="1.02" height="1.02"/><rect x="34" y="42" width="1.02" height="1.02"/><rect x="37" y="42" width="1.02" height="1.02"/><rect x="41" y="42" width="1.02" height="1.02"/><rect x="43" y="42" width="1.02" height="1.02"/><rect x="44" y="42" width="1.02" height="1.02"/><rect x="4" y="43" width="1.02" height="1.02"/><rect x="10" y="43" width="1.02" height="1.02"/><rect x="13" y="43" width="1.02" height="1.02"/><rect x="14" y="43" width="1.02" height="1.02"/><rect x="15" y="43" width="1.02" height="1.02"/><rect x="18" y="43" width="1.02" height="1.02"/><rect x="22" y="43" width="1.02" height="1.02"/><rect x="23" y="43" width="1.02" height="1.02"/><rect x="25" y="43" width="1.02" height="1.02"/><rect x="26" y="43" width="1.02" height="1.02"/><rect x="29" y="43" width="1.02" height="1.02"/><rect x="33" y="43" width="1.02" height="1.02"/><rect x="36" y="43" width="1.02" height="1.02"/><rect x="37" y="43" width="1.02" height="1.02"/><rect x="38" y="43" width="1.02" height="1.02"/><rect x="39" y="43" width="1.02" height="1.02"/><rect x="43" y="43" width="1.02" height="1.02"/><rect x="44" y="43" width="1.02" height="1.02"/><rect x="4" y="44" width="1.02" height="1.02"/><rect x="5" y="44" width="1.02" height="1.02"/><rect x="6" y="44" width="1.02" height="1.02"/><rect x="7" y="44" width="1.02" height="1.02"/><rect x="8" y="44" width="1.02" height="1.02"/><rect x="9" y="44" width="1.02" height="1.02"/><rect x="10" y="44" width="1.02" height="1.02"/><rect x="15" y="44" width="1.02" height="1.02"/><rect x="16" y="44" width="1.02" height="1.02"/><rect x="18" y="44" width="1.02" height="1.02"/><rect x="19" y="44" width="1.02" height="1.02"/><rect x="20" y="44" width="1.02" height="1.02"/><rect x="23" y="44" width="1.02" height="1.02"/><rect x="25" y="44" width="1.02" height="1.02"/><rect x="31" y="44" width="1.02" height="1.02"/><rect x="33" y="44" width="1.02" height="1.02"/><rect x="36" y="44" width="1.02" height="1.02"/><rect x="38" y="44" width="1.02" height="1.02"/><rect x="39" y="44" width="1.02" height="1.02"/><rect x="40" y="44" width="1.02" height="1.02"/><rect x="42" y="44" width="1.02" height="1.02"/><rect x="43" y="44" width="1.02" height="1.02"/></g>
<text x="22.3" y="24.8" text-anchor="middle" font-family="Italianno" font-size="7.4" fill="#565a22">Madeleine</text>
<text x="27.1" y="29.4" text-anchor="middle" font-family="Italianno" font-size="7.4" fill="#565a22">et Proust</text>
<g fill="#c8a355" stroke="#c8a355" stroke-width="0.13" stroke-linecap="round">
  <path d="M15.9 31.45 H13.9"/><path d="M33.1 31.45 H35.1"/>
  <path d="M13.35 31.45 l0.4 -0.4 l0.4 0.4 l-0.4 0.4 Z" stroke="none"/>
  <path d="M35.65 31.45 l-0.4 -0.4 l-0.4 0.4 l0.4 0.4 Z" stroke="none"/>
</g>
<text x="24.5" y="31.75" text-anchor="middle" font-family="Poppins" font-weight="500" font-size="0.92" letter-spacing="0.4" fill="#565a22">ARTISAN PÂTISSIÈRE</text>
</svg>